<svg xmlns="http://www.w3.org/2000/svg" xmlns:xlink="http://www.w3.org/1999/xlink" contentStyleType="text/css" height="183.6347px" preserveAspectRatio="none" style="width:1080px;height:183px;background:#FFFFFF;" version="1.1" viewBox="0 0 1080 183" width="1080.2478px" zoomAndPan="magnify"><defs/><g><!--MD5=[01435ace8273dc3cae88e7f376e4d373]
cluster core--><g id="cluster_core"><path d="M429.3483,108.9169 L438.2698,108.9169 A0.9293,0.9293 0 0 1 438.8894,109.5365 L440.6241,114.4425 L634.7912,114.4425 A0.6196,0.6196 0 0 1 635.4107,115.0621 L635.4107,144.9748 A0.6196,0.6196 0 0 1 634.7912,145.5943 L429.3483,145.5943 A0.6196,0.6196 0 0 1 428.7288,144.9748 L428.7288,109.5365 A0.6196,0.6196 0 0 1 429.3483,108.9169 " fill="none" style="stroke:#000000;stroke-width:0.3717301514456173;"/><line style="stroke:#000000;stroke-width:0.3717301514456173;" x1="428.7288" x2="440.6241" y1="114.4425" y2="114.4425"/><text fill="#000000" font-family="sans-serif" font-size="3.4695" font-weight="bold" lengthAdjust="spacing" textLength="8.6737" x="429.7201" y="112.633">core</text></g><!--MD5=[027d44d0fa771583cbce2d971d76ad3e]
cluster recipes--><g id="cluster_recipes"><path d="M2.1065,1.4869 L16.7279,1.4869 A0.9293,0.9293 0 0 1 17.3474,2.1065 L19.0821,7.0125 L422.1615,7.0125 A0.6196,0.6196 0 0 1 422.7811,7.6321 L422.7811,181.2804 A0.6196,0.6196 0 0 1 422.1615,181.9 L2.1065,181.9 A0.6196,0.6196 0 0 1 1.4869,181.2804 L1.4869,2.1065 A0.6196,0.6196 0 0 1 2.1065,1.4869 " fill="none" style="stroke:#000000;stroke-width:0.3717301514456173;"/><line style="stroke:#000000;stroke-width:0.3717301514456173;" x1="1.4869" x2="19.0821" y1="7.0125" y2="7.0125"/><text fill="#000000" font-family="sans-serif" font-size="3.4695" font-weight="bold" lengthAdjust="spacing" textLength="14.3736" x="2.4782" y="5.203">recipes</text></g><!--MD5=[44b19f2b673ac726c99a07aacf4b8a33]
cluster ingredients--><g id="cluster_ingredients"><path d="M641.978,9.5411 L665.0252,9.5411 A0.9293,0.9293 0 0 1 665.6448,10.1606 L667.3795,15.0667 L1077.8935,15.0667 A0.6196,0.6196 0 0 1 1078.5131,15.6862 L1078.5131,155.0115 A0.6196,0.6196 0 0 1 1077.8935,155.631 L641.978,155.631 A0.6196,0.6196 0 0 1 641.3584,155.0115 L641.3584,10.1606 A0.6196,0.6196 0 0 1 641.978,9.5411 " fill="none" style="stroke:#000000;stroke-width:0.3717301514456173;"/><line style="stroke:#000000;stroke-width:0.3717301514456173;" x1="641.3584" x2="667.3795" y1="15.0667" y2="15.0667"/><text fill="#000000" font-family="sans-serif" font-size="3.4695" font-weight="bold" lengthAdjust="spacing" textLength="22.7994" x="642.3497" y="13.2572">ingredients</text></g><!--MD5=[adb59bdc196be29d6dd555fd4c427561]
class DataMapperException--><g id="elem_DataMapperException"><rect codeLine="5" fill="#F1F1F1" height="15.9341" id="DataMapperException" rx="0.6196" ry="0.6196" style="stroke:#181818;stroke-width:0.12391005048187242;" width="48.0771" x="583.3685" y="121.6797"/><ellipse cx="587.0858" cy="125.6448" fill="#ADD1B2" rx="2.726" ry="2.726" style="stroke:#181818;stroke-width:0.24782010096374485;"/><path d="M587.6666,124.5722 C587.4343,124.4638 587.2872,124.4289 587.0703,124.4289 C586.4198,124.4289 585.9242,124.9439 585.9242,125.6177 L585.9242,125.8965 C585.9242,126.5354 586.4469,127.0039 587.1633,127.0039 C587.4653,127.0039 587.7518,126.9304 587.9377,126.7948 C588.081,126.6942 588.1623,126.5819 588.1623,126.4851 C588.1623,126.3728 588.0655,126.276 587.9493,126.276 C587.8951,126.276 587.8448,126.2953 587.7983,126.3418 C587.686,126.4618 587.686,126.4618 587.6395,126.4851 C587.535,126.5509 587.3646,126.5819 587.1749,126.5819 C586.6676,126.5819 586.3462,126.3108 586.3462,125.8887 L586.3462,125.6177 C586.3462,125.1763 586.656,124.851 587.0858,124.851 C587.2291,124.851 587.3801,124.8897 587.4963,124.9517 C587.6163,125.0214 587.6589,125.0756 587.6821,125.1763 C587.6976,125.2769 587.7054,125.3079 587.7402,125.3389 C587.7751,125.3737 587.8332,125.4008 587.8874,125.4008 C587.9532,125.4008 588.019,125.366 588.0616,125.3118 C588.0887,125.2731 588.0965,125.2266 588.0965,125.122 L588.0965,124.7697 C588.0965,124.6613 588.0926,124.6303 588.0694,124.5916 C588.0306,124.5257 587.9609,124.4909 587.8874,124.4909 C587.8138,124.4909 587.7635,124.5141 587.7092,124.5916 L587.6666,124.5722 Z " fill="#000000"/><text fill="#000000" font-family="sans-serif" font-size="3.4695" lengthAdjust="spacing" textLength="40.1469" x="590.5553" y="126.8459">DataMapperException</text><line style="stroke:#181818;stroke-width:0.12391005048187242;" x1="583.6163" x2="631.1978" y1="129.6099" y2="129.6099"/><text fill="#000000" font-family="sans-serif" font-size="3.4695" lengthAdjust="spacing" textLength="30.2341" x="584.8554" y="133.8216">-message: String</text><line style="stroke:#181818;stroke-width:0.12391005048187242;" x1="583.6163" x2="631.1978" y1="135.6312" y2="135.6312"/></g><!--MD5=[885e3c7929b99c7c98725197c8469a99]
class GatewayException--><g id="elem_GatewayException"><rect codeLine="8" fill="#F1F1F1" height="15.9341" id="GatewayException" rx="0.6196" ry="0.6196" style="stroke:#181818;stroke-width:0.12391005048187242;" width="41.386" x="533.1849" y="121.6797"/><ellipse cx="536.9022" cy="125.6448" fill="#ADD1B2" rx="2.726" ry="2.726" style="stroke:#181818;stroke-width:0.24782010096374485;"/><path d="M537.4831,124.5722 C537.2507,124.4638 537.1036,124.4289 536.8868,124.4289 C536.2362,124.4289 535.7406,124.9439 535.7406,125.6177 L535.7406,125.8965 C535.7406,126.5354 536.2633,127.0039 536.9797,127.0039 C537.2817,127.0039 537.5683,126.9304 537.7541,126.7948 C537.8974,126.6942 537.9787,126.5819 537.9787,126.4851 C537.9787,126.3728 537.8819,126.276 537.7657,126.276 C537.7115,126.276 537.6612,126.2953 537.6147,126.3418 C537.5024,126.4618 537.5024,126.4618 537.456,126.4851 C537.3514,126.5509 537.181,126.5819 536.9913,126.5819 C536.4841,126.5819 536.1627,126.3108 536.1627,125.8887 L536.1627,125.6177 C536.1627,125.1763 536.4724,124.851 536.9022,124.851 C537.0455,124.851 537.1965,124.8897 537.3127,124.9517 C537.4327,125.0214 537.4753,125.0756 537.4986,125.1763 C537.5141,125.2769 537.5218,125.3079 537.5566,125.3389 C537.5915,125.3737 537.6496,125.4008 537.7038,125.4008 C537.7696,125.4008 537.8354,125.366 537.878,125.3118 C537.9051,125.2731 537.9129,125.2266 537.9129,125.122 L537.9129,124.7697 C537.9129,124.6613 537.909,124.6303 537.8858,124.5916 C537.8471,124.5257 537.7774,124.4909 537.7038,124.4909 C537.6302,124.4909 537.5799,124.5141 537.5257,124.5916 L537.4831,124.5722 Z " fill="#000000"/><text fill="#000000" font-family="sans-serif" font-size="3.4695" lengthAdjust="spacing" textLength="33.4557" x="540.3717" y="126.8459">GatewayException</text><line style="stroke:#181818;stroke-width:0.12391005048187242;" x1="533.4328" x2="574.3231" y1="129.6099" y2="129.6099"/><text fill="#000000" font-family="sans-serif" font-size="3.4695" lengthAdjust="spacing" textLength="30.2341" x="534.6719" y="133.8216">-message: String</text><line style="stroke:#181818;stroke-width:0.12391005048187242;" x1="533.4328" x2="574.3231" y1="135.6312" y2="135.6312"/></g><!--MD5=[acc9b0ba880c885d7df37e14c4aa3b26]
class StandardResponse--><g id="elem_StandardResponse"><rect codeLine="11" fill="#F1F1F1" height="24.0114" id="StandardResponse" rx="0.6196" ry="0.6196" style="stroke:#181818;stroke-width:0.12391005048187242;" width="46.3424" x="478.1689" y="117.5906"/><ellipse cx="484.1166" cy="121.5558" fill="#ADD1B2" rx="2.726" ry="2.726" style="stroke:#181818;stroke-width:0.24782010096374485;"/><path d="M484.6974,120.4832 C484.4651,120.3747 484.3179,120.3399 484.1011,120.3399 C483.4506,120.3399 482.9549,120.8549 482.9549,121.5287 L482.9549,121.8075 C482.9549,122.4464 483.4777,122.9149 484.194,122.9149 C484.496,122.9149 484.7826,122.8413 484.9684,122.7058 C485.1117,122.6051 485.193,122.4928 485.193,122.396 C485.193,122.2837 485.0962,122.1869 484.9801,122.1869 C484.9259,122.1869 484.8755,122.2063 484.8291,122.2528 C484.7168,122.3728 484.7168,122.3728 484.6703,122.396 C484.5657,122.4619 484.3954,122.4928 484.2056,122.4928 C483.6984,122.4928 483.377,122.2218 483.377,121.7997 L483.377,121.5287 C483.377,121.0872 483.6868,120.762 484.1166,120.762 C484.2598,120.762 484.4109,120.8007 484.527,120.8626 C484.6471,120.9323 484.6897,120.9865 484.7129,121.0872 C484.7284,121.1879 484.7361,121.2189 484.771,121.2499 C484.8058,121.2847 484.8639,121.3118 484.9181,121.3118 C484.9839,121.3118 485.0498,121.277 485.0924,121.2228 C485.1195,121.184 485.1272,121.1376 485.1272,121.033 L485.1272,120.6806 C485.1272,120.5722 485.1233,120.5412 485.1001,120.5025 C485.0614,120.4367 484.9917,120.4018 484.9181,120.4018 C484.8445,120.4018 484.7942,120.4251 484.74,120.5025 L484.6974,120.4832 Z " fill="#000000"/><text fill="#000000" font-family="sans-serif" font-size="3.4695" lengthAdjust="spacing" textLength="33.4557" x="488.0817" y="122.7569">StandardResponse</text><line style="stroke:#181818;stroke-width:0.12391005048187242;" x1="478.4167" x2="524.2634" y1="125.5209" y2="125.5209"/><text fill="#000000" font-family="sans-serif" font-size="3.4695" lengthAdjust="spacing" textLength="43.3685" x="479.6558" y="129.7326">-status: StatusResponse</text><text fill="#000000" font-family="sans-serif" font-size="3.4695" lengthAdjust="spacing" textLength="30.2341" x="479.6558" y="133.7713">-message: String</text><text fill="#000000" font-family="sans-serif" font-size="3.4695" lengthAdjust="spacing" textLength="33.9514" x="479.6558" y="137.81">-data: JsonElement</text><line style="stroke:#181818;stroke-width:0.12391005048187242;" x1="478.4167" x2="524.2634" y1="139.6195" y2="139.6195"/></g><!--MD5=[2069ad2dcedadb8584ed633d2c2607a8]
class StatusResponse--><g id="elem_StatusResponse"><rect codeLine="16" fill="#F1F1F1" height="24.0114" id="StatusResponse" rx="0.6196" ry="0.6196" style="stroke:#181818;stroke-width:0.12391005048187242;" width="36.6774" x="432.6939" y="117.5906"/><ellipse cx="436.4112" cy="121.5558" fill="#EB937F" rx="2.726" ry="2.726" style="stroke:#181818;stroke-width:0.24782010096374485;"/><path d="M436.113,121.7726 L436.4732,121.7726 L436.4732,121.7997 C436.4732,121.9004 436.4809,121.9391 436.5003,121.9778 C436.539,122.0398 436.6087,122.0785 436.6823,122.0785 C436.7442,122.0785 436.81,122.0437 436.8488,121.9894 C436.8797,121.9507 436.8875,121.912 436.8875,121.7997 L436.8875,121.3234 C436.8875,121.2847 436.8875,121.2731 436.8836,121.2344 C436.8681,121.1182 436.7907,121.0408 436.6784,121.0408 C436.6164,121.0408 436.5506,121.0756 436.508,121.1298 C436.4809,121.1724 436.4732,121.2111 436.4732,121.3234 L436.4732,121.3544 L436.113,121.3544 L436.113,120.7581 L437.1004,120.7581 L437.1004,120.9711 C437.1004,121.0717 437.1082,121.1143 437.1276,121.1531 C437.1701,121.215 437.2398,121.2537 437.3095,121.2537 C437.3754,121.2537 437.4412,121.2189 437.4838,121.1647 C437.5109,121.1221 437.5186,121.0872 437.5186,120.9711 L437.5186,120.3399 L435.629,120.3399 C435.5206,120.3399 435.4896,120.3438 435.4509,120.367 C435.3889,120.4057 435.3502,120.4793 435.3502,120.549 C435.3502,120.6187 435.3851,120.6806 435.4393,120.7232 C435.478,120.7503 435.5245,120.7581 435.629,120.7581 L435.691,120.7581 L435.691,122.3728 L435.629,122.3728 C435.5283,122.3728 435.4896,122.3767 435.4509,122.4038 C435.3889,122.4464 435.3502,122.5122 435.3502,122.5858 C435.3502,122.6516 435.3851,122.7135 435.4393,122.7523 C435.4741,122.7832 435.5322,122.7949 435.629,122.7949 L437.6116,122.7949 L437.6116,122.1559 C437.6116,122.0475 437.6038,122.0127 437.5845,121.974 C437.5419,121.912 437.4722,121.8733 437.4025,121.8733 C437.3367,121.8733 437.2708,121.9004 437.2282,121.9623 C437.2011,122.0011 437.1934,122.0359 437.1934,122.1559 L437.1934,122.3728 L436.113,122.3728 L436.113,121.7726 Z " fill="#000000"/><text fill="#000000" font-family="sans-serif" font-size="3.4695" lengthAdjust="spacing" textLength="28.7471" x="439.8807" y="122.7569">StatusResponse</text><line style="stroke:#181818;stroke-width:0.12391005048187242;" x1="432.9417" x2="469.1235" y1="125.5209" y2="125.5209"/><text fill="#000000" font-family="sans-serif" font-size="3.4695" lengthAdjust="spacing" textLength="25.5255" x="434.1808" y="129.7326">-status: String</text><text fill="#000000" font-family="sans-serif" font-size="3.4695" lengthAdjust="spacing" textLength="18.8343" x="434.1808" y="133.7713">+SUCCESS</text><text fill="#000000" font-family="sans-serif" font-size="3.4695" lengthAdjust="spacing" textLength="15.117" x="434.1808" y="137.81">+ERROR</text><line style="stroke:#181818;stroke-width:0.12391005048187242;" x1="432.9417" x2="469.1235" y1="139.6195" y2="139.6195"/></g><!--MD5=[d396111c05041304e7a5320400e00f3b]
class DeletedRecipe--><g id="elem_DeletedRecipe"><rect codeLine="24" fill="#F1F1F1" height="15.9341" id="DeletedRecipe" rx="0.6196" ry="0.6196" style="stroke:#181818;stroke-width:0.12391005048187242;" width="34.6948" x="5.452" y="30.358"/><ellipse cx="9.1693" cy="34.3231" fill="#ADD1B2" rx="2.726" ry="2.726" style="stroke:#181818;stroke-width:0.24782010096374485;"/><path d="M9.7502,33.2505 C9.5178,33.1421 9.3707,33.1072 9.1539,33.1072 C8.5033,33.1072 8.0077,33.6222 8.0077,34.296 L8.0077,34.5748 C8.0077,35.2137 8.5304,35.6822 9.2468,35.6822 C9.5488,35.6822 9.8354,35.6087 10.0212,35.4731 C10.1645,35.3724 10.2458,35.2602 10.2458,35.1633 C10.2458,35.0511 10.149,34.9543 10.0328,34.9543 C9.9786,34.9543 9.9283,34.9736 9.8818,35.0201 C9.7695,35.1401 9.7695,35.1401 9.7231,35.1633 C9.6185,35.2292 9.4481,35.2602 9.2584,35.2602 C8.7511,35.2602 8.4298,34.9891 8.4298,34.567 L8.4298,34.296 C8.4298,33.8545 8.7395,33.5293 9.1693,33.5293 C9.3126,33.5293 9.4636,33.568 9.5798,33.63 C9.6998,33.6997 9.7424,33.7539 9.7657,33.8545 C9.7811,33.9552 9.7889,33.9862 9.8237,34.0172 C9.8586,34.052 9.9167,34.0791 9.9709,34.0791 C10.0367,34.0791 10.1025,34.0443 10.1451,33.9901 C10.1722,33.9514 10.18,33.9049 10.18,33.8003 L10.18,33.448 C10.18,33.3395 10.1761,33.3086 10.1529,33.2698 C10.1142,33.204 10.0445,33.1692 9.9709,33.1692 C9.8973,33.1692 9.847,33.1924 9.7928,33.2698 L9.7502,33.2505 Z " fill="#000000"/><text fill="#000000" font-family="sans-serif" font-size="3.4695" lengthAdjust="spacing" textLength="26.7646" x="12.6388" y="35.5242">DeletedRecipe</text><line style="stroke:#181818;stroke-width:0.12391005048187242;" x1="5.6999" x2="39.899" y1="38.2882" y2="38.2882"/><text fill="#000000" font-family="sans-serif" font-size="3.4695" lengthAdjust="spacing" textLength="20.0734" x="6.939" y="42.4999">-id: Integer</text><line style="stroke:#181818;stroke-width:0.12391005048187242;" x1="5.6999" x2="39.899" y1="44.3095" y2="44.3095"/></g><!--MD5=[20418cb98520644da1e87dc0310aa74a]
class Recipe--><g id="elem_Recipe"><rect codeLine="27" fill="#F1F1F1" height="56.321" id="Recipe" rx="0.6196" ry="0.6196" style="stroke:#181818;stroke-width:0.12391005048187242;" width="46.838" x="48.9445" y="10.1606"/><ellipse cx="65.1147" cy="14.1257" fill="#ADD1B2" rx="2.726" ry="2.726" style="stroke:#181818;stroke-width:0.24782010096374485;"/><path d="M65.6956,13.0531 C65.4632,12.9447 65.3161,12.9099 65.0992,12.9099 C64.4487,12.9099 63.9531,13.4249 63.9531,14.0986 L63.9531,14.3774 C63.9531,15.0163 64.4758,15.4849 65.1922,15.4849 C65.4942,15.4849 65.7807,15.4113 65.9666,15.2758 C66.1099,15.1751 66.1912,15.0628 66.1912,14.966 C66.1912,14.8537 66.0944,14.7569 65.9782,14.7569 C65.924,14.7569 65.8737,14.7763 65.8272,14.8227 C65.7149,14.9428 65.7149,14.9428 65.6685,14.966 C65.5639,15.0318 65.3935,15.0628 65.2038,15.0628 C64.6965,15.0628 64.3751,14.7918 64.3751,14.3697 L64.3751,14.0986 C64.3751,13.6572 64.6849,13.3319 65.1147,13.3319 C65.258,13.3319 65.409,13.3707 65.5252,13.4326 C65.6452,13.5023 65.6878,13.5565 65.711,13.6572 C65.7265,13.7579 65.7343,13.7889 65.7691,13.8198 C65.804,13.8547 65.8621,13.8818 65.9163,13.8818 C65.9821,13.8818 66.0479,13.8469 66.0905,13.7927 C66.1176,13.754 66.1254,13.7075 66.1254,13.603 L66.1254,13.2506 C66.1254,13.1422 66.1215,13.1112 66.0983,13.0725 C66.0595,13.0067 65.9898,12.9718 65.9163,12.9718 C65.8427,12.9718 65.7924,12.9951 65.7382,13.0725 L65.6956,13.0531 Z " fill="#000000"/><text fill="#000000" font-family="sans-serif" font-size="3.4695" lengthAdjust="spacing" textLength="12.391" x="70.195" y="15.3269">Recipe</text><line style="stroke:#181818;stroke-width:0.12391005048187242;" x1="49.1923" x2="95.5346" y1="18.0909" y2="18.0909"/><text fill="#000000" font-family="sans-serif" font-size="3.4695" lengthAdjust="spacing" textLength="20.0734" x="50.4314" y="22.3026">-id: Integer</text><text fill="#000000" font-family="sans-serif" font-size="3.4695" lengthAdjust="spacing" textLength="22.3038" x="50.4314" y="26.3413">-title: String</text><text fill="#000000" font-family="sans-serif" font-size="3.4695" lengthAdjust="spacing" textLength="25.5255" x="50.4314" y="30.38">-image: String</text><text fill="#000000" font-family="sans-serif" font-size="3.4695" lengthAdjust="spacing" textLength="31.4732" x="50.4314" y="34.4187">-servings: Integer</text><text fill="#000000" font-family="sans-serif" font-size="3.4695" lengthAdjust="spacing" textLength="38.4121" x="50.4314" y="38.4574">-healthScore: Integer</text><text fill="#000000" font-family="sans-serif" font-size="3.4695" lengthAdjust="spacing" textLength="28.995" x="50.4314" y="42.4961">-cheap: Boolean</text><text fill="#000000" font-family="sans-serif" font-size="3.4695" lengthAdjust="spacing" textLength="37.4208" x="50.4314" y="46.5348">-glutenFree: Boolean</text><text fill="#000000" font-family="sans-serif" font-size="3.4695" lengthAdjust="spacing" textLength="34.6948" x="50.4314" y="50.5735">-dairyFree: Boolean</text><text fill="#000000" font-family="sans-serif" font-size="3.4695" lengthAdjust="spacing" textLength="43.8642" x="50.4314" y="54.6121">-readyInMinutes: Integer</text><text fill="#000000" font-family="sans-serif" font-size="3.4695" lengthAdjust="spacing" textLength="35.6861" x="50.4314" y="58.6508">-instructions: String</text><text fill="#000000" font-family="sans-serif" font-size="3.4695" lengthAdjust="spacing" textLength="30.7297" x="50.4314" y="62.6895">-summary: String</text><line style="stroke:#181818;stroke-width:0.12391005048187242;" x1="49.1923" x2="95.5346" y1="64.4991" y2="64.4991"/></g><!--MD5=[23569089cf03275700c0dfbfa231d895]
class RecipeDTO--><g id="elem_RecipeDTO"><rect codeLine="40" fill="#F1F1F1" height="96.7079" id="RecipeDTO" rx="0.6196" ry="0.6196" style="stroke:#181818;stroke-width:0.12391005048187242;" width="57.7421" x="5.576" y="81.285"/><ellipse cx="23.357" cy="85.2501" fill="#ADD1B2" rx="2.726" ry="2.726" style="stroke:#181818;stroke-width:0.24782010096374485;"/><path d="M23.9379,84.1775 C23.7055,84.0691 23.5584,84.0342 23.3416,84.0342 C22.691,84.0342 22.1954,84.5492 22.1954,85.223 L22.1954,85.5018 C22.1954,86.1407 22.7181,86.6093 23.4345,86.6093 C23.7365,86.6093 24.0231,86.5357 24.2089,86.4002 C24.3522,86.2995 24.4335,86.1872 24.4335,86.0904 C24.4335,85.9781 24.3367,85.8813 24.2205,85.8813 C24.1663,85.8813 24.116,85.9006 24.0695,85.9471 C23.9572,86.0671 23.9572,86.0671 23.9108,86.0904 C23.8062,86.1562 23.6358,86.1872 23.4461,86.1872 C22.9388,86.1872 22.6175,85.9161 22.6175,85.4941 L22.6175,85.223 C22.6175,84.7816 22.9272,84.4563 23.357,84.4563 C23.5003,84.4563 23.6513,84.495 23.7675,84.557 C23.8875,84.6267 23.9301,84.6809 23.9534,84.7816 C23.9689,84.8823 23.9766,84.9132 24.0114,84.9442 C24.0463,84.9791 24.1044,85.0062 24.1586,85.0062 C24.2244,85.0062 24.2902,84.9713 24.3328,84.9171 C24.3599,84.8784 24.3677,84.8319 24.3677,84.7274 L24.3677,84.375 C24.3677,84.2666 24.3638,84.2356 24.3406,84.1969 C24.3019,84.1311 24.2322,84.0962 24.1586,84.0962 C24.085,84.0962 24.0347,84.1194 23.9805,84.1969 L23.9379,84.1775 Z " fill="#000000"/><text fill="#000000" font-family="sans-serif" font-size="3.4695" lengthAdjust="spacing" textLength="20.0734" x="28.4374" y="86.4512">RecipeDTO</text><line style="stroke:#181818;stroke-width:0.12391005048187242;" x1="5.8238" x2="63.0702" y1="89.2152" y2="89.2152"/><text fill="#000000" font-family="sans-serif" font-size="3.4695" lengthAdjust="spacing" textLength="22.3038" x="7.0629" y="93.427">-title: String</text><text fill="#000000" font-family="sans-serif" font-size="3.4695" lengthAdjust="spacing" textLength="25.5255" x="7.0629" y="97.4657">-image: String</text><text fill="#000000" font-family="sans-serif" font-size="3.4695" lengthAdjust="spacing" textLength="31.4732" x="7.0629" y="101.5044">-servings: Integer</text><text fill="#000000" font-family="sans-serif" font-size="3.4695" lengthAdjust="spacing" textLength="38.4121" x="7.0629" y="105.543">-healthScore: Integer</text><text fill="#000000" font-family="sans-serif" font-size="3.4695" lengthAdjust="spacing" textLength="28.995" x="7.0629" y="109.5817">-cheap: Boolean</text><text fill="#000000" font-family="sans-serif" font-size="3.4695" lengthAdjust="spacing" textLength="37.4208" x="7.0629" y="113.6204">-glutenFree: Boolean</text><text fill="#000000" font-family="sans-serif" font-size="3.4695" lengthAdjust="spacing" textLength="34.6948" x="7.0629" y="117.6591">-dairyFree: Boolean</text><text fill="#000000" font-family="sans-serif" font-size="3.4695" lengthAdjust="spacing" textLength="43.8642" x="7.0629" y="121.6978">-readyInMinutes: Integer</text><text fill="#000000" font-family="sans-serif" font-size="3.4695" lengthAdjust="spacing" textLength="35.6861" x="7.0629" y="125.7365">-instructions: String</text><text fill="#000000" font-family="sans-serif" font-size="3.4695" lengthAdjust="spacing" textLength="30.7297" x="7.0629" y="129.7752">-summary: String</text><line style="stroke:#181818;stroke-width:0.12391005048187242;" x1="5.8238" x2="63.0702" y1="131.5847" y2="131.5847"/><text fill="#000000" font-family="sans-serif" font-size="3.4695" lengthAdjust="spacing" textLength="32.7123" x="7.0629" y="135.7965">+getTitle(): String</text><text fill="#000000" font-family="sans-serif" font-size="3.4695" lengthAdjust="spacing" textLength="35.4383" x="7.0629" y="139.8352">+getImage(): String</text><text fill="#000000" font-family="sans-serif" font-size="3.4695" lengthAdjust="spacing" textLength="41.8816" x="7.0629" y="143.8738">+getServings(): Integer</text><text fill="#000000" font-family="sans-serif" font-size="3.4695" lengthAdjust="spacing" textLength="48.5727" x="7.0629" y="147.9125">+getHealthScore(): Integer</text><text fill="#000000" font-family="sans-serif" font-size="3.4695" lengthAdjust="spacing" textLength="35.9339" x="7.0629" y="151.9512">+isCheap(): Boolean</text><text fill="#000000" font-family="sans-serif" font-size="3.4695" lengthAdjust="spacing" textLength="44.3598" x="7.0629" y="155.9899">+isGlutenFree(): Boolean</text><text fill="#000000" font-family="sans-serif" font-size="3.4695" lengthAdjust="spacing" textLength="41.6338" x="7.0629" y="160.0286">+isDairyFree(): Boolean</text><text fill="#000000" font-family="sans-serif" font-size="3.4695" lengthAdjust="spacing" textLength="54.7682" x="7.0629" y="164.0673">+getReadyInMinutes(): Integer</text><text fill="#000000" font-family="sans-serif" font-size="3.4695" lengthAdjust="spacing" textLength="45.5989" x="7.0629" y="168.106">+getInstructions(): String</text><text fill="#000000" font-family="sans-serif" font-size="3.4695" lengthAdjust="spacing" textLength="41.1381" x="7.0629" y="172.1447">+getSummary(): String</text><text fill="#000000" font-family="sans-serif" font-size="3.4695" lengthAdjust="spacing" textLength="52.7857" x="7.0629" y="176.1834">+getIngredientIds(): Integer[]</text></g><!--MD5=[958ac6c9488d0d3b5ce591602aa3248d]
class RecipeController--><g id="elem_RecipeController"><rect codeLine="64" fill="#F1F1F1" height="19.9728" id="RecipeController" rx="0.6196" ry="0.6196" style="stroke:#181818;stroke-width:0.12391005048187242;" width="75.833" x="104.5801" y="28.2515"/><ellipse cx="126.2024" cy="32.2166" fill="#ADD1B2" rx="2.726" ry="2.726" style="stroke:#181818;stroke-width:0.24782010096374485;"/><path d="M126.7832,31.144 C126.5509,31.0356 126.4037,31.0007 126.1869,31.0007 C125.5364,31.0007 125.0407,31.5157 125.0407,32.1895 L125.0407,32.4683 C125.0407,33.1072 125.5635,33.5758 126.2798,33.5758 C126.5819,33.5758 126.8684,33.5022 127.0543,33.3667 C127.1975,33.266 127.2789,33.1537 127.2789,33.0569 C127.2789,32.9446 127.1821,32.8478 127.0659,32.8478 C127.0117,32.8478 126.9613,32.8671 126.9149,32.9136 C126.8026,33.0336 126.8026,33.0336 126.7561,33.0569 C126.6516,33.1227 126.4812,33.1537 126.2914,33.1537 C125.7842,33.1537 125.4628,32.8826 125.4628,32.4606 L125.4628,32.1895 C125.4628,31.7481 125.7726,31.4228 126.2024,31.4228 C126.3457,31.4228 126.4967,31.4615 126.6128,31.5235 C126.7329,31.5932 126.7755,31.6474 126.7987,31.7481 C126.8142,31.8488 126.8219,31.8797 126.8568,31.9107 C126.8916,31.9456 126.9497,31.9727 127.0039,31.9727 C127.0698,31.9727 127.1356,31.9378 127.1782,31.8836 C127.2053,31.8449 127.213,31.7984 127.213,31.6939 L127.213,31.3415 C127.213,31.2331 127.2092,31.2021 127.1859,31.1634 C127.1472,31.0976 127.0775,31.0627 127.0039,31.0627 C126.9304,31.0627 126.88,31.0859 126.8258,31.1634 L126.7832,31.144 Z " fill="#000000"/><text fill="#000000" font-family="sans-serif" font-size="3.4695" lengthAdjust="spacing" textLength="30.4819" x="131.2827" y="33.4177">RecipeController</text><line style="stroke:#181818;stroke-width:0.12391005048187242;" x1="104.8279" x2="180.1652" y1="36.1817" y2="36.1817"/><text fill="#000000" font-family="sans-serif" font-size="3.4695" lengthAdjust="spacing" textLength="72.8591" x="106.067" y="40.3935">+recipeDataMapper: RecipeDataMapper</text><line style="stroke:#181818;stroke-width:0.12391005048187242;" x1="104.8279" x2="180.1652" y1="42.203" y2="42.203"/><text fill="#000000" font-family="sans-serif" font-size="3.4695" lengthAdjust="spacing" textLength="20.5691" x="106.067" y="46.4147">+run(): void</text></g><!--MD5=[c7be5eb2e04955997e993b7e5844812f]
class RecipeDataMapper--><g id="elem_RecipeDataMapper"><rect codeLine="68" fill="#F1F1F1" height="48.2436" id="RecipeDataMapper" rx="0.6196" ry="0.6196" style="stroke:#181818;stroke-width:0.12391005048187242;" width="107.8017" x="310.8903" y="14.1257"/><ellipse cx="346.5145" cy="18.0909" fill="#ADD1B2" rx="2.726" ry="2.726" style="stroke:#181818;stroke-width:0.24782010096374485;"/><path d="M347.0953,17.0183 C346.863,16.9098 346.7158,16.875 346.499,16.875 C345.8484,16.875 345.3528,17.39 345.3528,18.0638 L345.3528,18.3426 C345.3528,18.9815 345.8755,19.45 346.5919,19.45 C346.8939,19.45 347.1805,19.3764 347.3663,19.2409 C347.5096,19.1402 347.5909,19.0279 347.5909,18.9311 C347.5909,18.8188 347.4941,18.722 347.378,18.722 C347.3237,18.722 347.2734,18.7414 347.2269,18.7879 C347.1146,18.9079 347.1146,18.9079 347.0682,18.9311 C346.9636,18.997 346.7933,19.0279 346.6035,19.0279 C346.0963,19.0279 345.7749,18.7569 345.7749,18.3348 L345.7749,18.0638 C345.7749,17.6223 346.0846,17.2971 346.5145,17.2971 C346.6577,17.2971 346.8087,17.3358 346.9249,17.3977 C347.0449,17.4674 347.0875,17.5217 347.1108,17.6223 C347.1263,17.723 347.134,17.754 347.1689,17.785 C347.2037,17.8198 347.2618,17.8469 347.316,17.8469 C347.3818,17.8469 347.4477,17.8121 347.4902,17.7579 C347.5174,17.7191 347.5251,17.6727 347.5251,17.5681 L347.5251,17.2158 C347.5251,17.1073 347.5212,17.0764 347.498,17.0376 C347.4593,16.9718 347.3896,16.937 347.316,16.937 C347.2424,16.937 347.1921,16.9602 347.1379,17.0376 L347.0953,17.0183 Z " fill="#000000"/><text fill="#000000" font-family="sans-serif" font-size="3.4695" lengthAdjust="spacing" textLength="34.447" x="351.5948" y="19.292">RecipeDataMapper</text><line style="stroke:#181818;stroke-width:0.12391005048187242;" x1="311.1381" x2="418.4442" y1="22.056" y2="22.056"/><text fill="#000000" font-family="sans-serif" font-size="3.4695" lengthAdjust="spacing" textLength="60.7159" x="312.3772" y="26.2677">+recipeGateway: RecipeGateway;</text><text fill="#000000" font-family="sans-serif" font-size="3.4695" lengthAdjust="spacing" textLength="87.4805" x="312.3772" y="30.3064">+ingredientDataMapper: IngredientDataMapper;</text><line style="stroke:#181818;stroke-width:0.12391005048187242;" x1="311.1381" x2="418.4442" y1="32.1159" y2="32.1159"/><text fill="#000000" font-family="sans-serif" font-size="3.4695" lengthAdjust="spacing" textLength="33.7035" x="312.3772" y="36.3277">+findAll(): Recipe[]</text><text fill="#000000" font-family="sans-serif" font-size="3.4695" lengthAdjust="spacing" textLength="71.62" x="312.3772" y="40.3664">+findOneById(recipeId: Integer): Recipe</text><text fill="#000000" font-family="sans-serif" font-size="3.4695" lengthAdjust="spacing" textLength="73.3547" x="312.3772" y="44.4051">+deletedById(recipeId: Integer): Boolean</text><text fill="#000000" font-family="sans-serif" font-size="3.4695" lengthAdjust="spacing" textLength="65.9201" x="312.3772" y="48.4437">+create(recipe: RecipeDTO): Integer</text><text fill="#000000" font-family="sans-serif" font-size="3.4695" lengthAdjust="spacing" textLength="93.1804" x="312.3772" y="52.4824">+update(recipeId: Integer, recipe: RecipeDTO): void</text><text fill="#000000" font-family="sans-serif" font-size="3.4695" lengthAdjust="spacing" textLength="104.8279" x="312.3772" y="56.5211">+findIngredientsOfOneById(recipeId: Integer): Ingredient[]</text><text fill="#000000" font-family="sans-serif" font-size="3.4695" lengthAdjust="spacing" textLength="87.7283" x="312.3772" y="60.5598">+getRecipeFromResultSet(rs: ResultSet): Recipe</text></g><!--MD5=[5dedfd81585f9b4982055b0167c1edae]
class RecipeGateway--><g id="elem_RecipeGateway"><rect codeLine="79" fill="#F1F1F1" height="40.1662" id="RecipeGateway" rx="0.6196" ry="0.6196" style="stroke:#181818;stroke-width:0.12391005048187242;" width="113.006" x="189.0867" y="18.2148"/><ellipse cx="230.6586" cy="22.1799" fill="#ADD1B2" rx="2.726" ry="2.726" style="stroke:#181818;stroke-width:0.24782010096374485;"/><path d="M231.2394,21.1073 C231.0071,20.9989 230.8599,20.964 230.6431,20.964 C229.9925,20.964 229.4969,21.479 229.4969,22.1528 L229.4969,22.4316 C229.4969,23.0705 230.0196,23.539 230.736,23.539 C231.038,23.539 231.3246,23.4655 231.5104,23.3299 C231.6537,23.2293 231.735,23.117 231.735,23.0202 C231.735,22.9079 231.6382,22.8111 231.5221,22.8111 C231.4678,22.8111 231.4175,22.8304 231.371,22.8769 C231.2587,22.9969 231.2587,22.9969 231.2123,23.0202 C231.1077,23.086 230.9374,23.117 230.7476,23.117 C230.2404,23.117 229.919,22.8459 229.919,22.4238 L229.919,22.1528 C229.919,21.7114 230.2287,21.3861 230.6586,21.3861 C230.8018,21.3861 230.9528,21.4248 231.069,21.4868 C231.189,21.5565 231.2316,21.6107 231.2549,21.7114 C231.2704,21.812 231.2781,21.843 231.313,21.874 C231.3478,21.9088 231.4059,21.936 231.4601,21.936 C231.5259,21.936 231.5918,21.9011 231.6344,21.8469 C231.6615,21.8082 231.6692,21.7617 231.6692,21.6572 L231.6692,21.3048 C231.6692,21.1964 231.6653,21.1654 231.6421,21.1267 C231.6034,21.0608 231.5337,21.026 231.4601,21.026 C231.3865,21.026 231.3362,21.0492 231.282,21.1267 L231.2394,21.1073 Z " fill="#000000"/><text fill="#000000" font-family="sans-serif" font-size="3.4695" lengthAdjust="spacing" textLength="27.7559" x="235.7389" y="23.381">RecipeGateway</text><line style="stroke:#181818;stroke-width:0.12391005048187242;" x1="189.3346" x2="301.8449" y1="26.145" y2="26.145"/><line style="stroke:#181818;stroke-width:0.12391005048187242;" x1="189.3346" x2="301.8449" y1="28.1276" y2="28.1276"/><text fill="#000000" font-family="sans-serif" font-size="3.4695" lengthAdjust="spacing" textLength="65.1767" x="190.5737" y="32.3393">+connect(dbUrl: String): Connection</text><text fill="#000000" font-family="sans-serif" font-size="3.4695" lengthAdjust="spacing" textLength="36.1817" x="190.5737" y="36.378">+findAll(): ResultSet</text><text fill="#000000" font-family="sans-serif" font-size="3.4695" lengthAdjust="spacing" textLength="76.5764" x="190.5737" y="40.4167">+findOneById(recipeId: Integer): ResultSet</text><text fill="#000000" font-family="sans-serif" font-size="3.4695" lengthAdjust="spacing" textLength="66.4158" x="190.5737" y="44.4554">+deletedById(recipeId: Integer): void</text><text fill="#000000" font-family="sans-serif" font-size="3.4695" lengthAdjust="spacing" textLength="65.9201" x="190.5737" y="48.4941">+create(recipe: RecipeDTO): Integer</text><text fill="#000000" font-family="sans-serif" font-size="3.4695" lengthAdjust="spacing" textLength="93.1804" x="190.5737" y="52.5328">+update(recipeId: Integer, recipe: RecipeDTO): void</text><text fill="#000000" font-family="sans-serif" font-size="3.4695" lengthAdjust="spacing" textLength="110.0321" x="190.5737" y="56.5715">+findIngredientIdsFromRecipeId(recipeId: Integer): ResultSet</text></g><!--MD5=[0a5ea5e4efeec35be9f3a2a20f9ecbae]
class DeletedIngredient--><g id="elem_DeletedIngredient"><rect codeLine="91" fill="#F1F1F1" height="15.9341" id="DeletedIngredient" rx="0.6196" ry="0.6196" style="stroke:#181818;stroke-width:0.12391005048187242;" width="40.8903" x="994.1303" y="30.358"/><ellipse cx="997.8476" cy="34.3231" fill="#ADD1B2" rx="2.726" ry="2.726" style="stroke:#181818;stroke-width:0.24782010096374485;"/><path d="M998.4285,33.2505 C998.1961,33.1421 998.049,33.1072 997.8321,33.1072 C997.1816,33.1072 996.686,33.6222 996.686,34.296 L996.686,34.5748 C996.686,35.2137 997.2087,35.6822 997.9251,35.6822 C998.2271,35.6822 998.5137,35.6087 998.6995,35.4731 C998.8428,35.3724 998.9241,35.2602 998.9241,35.1633 C998.9241,35.0511 998.8273,34.9543 998.7111,34.9543 C998.6569,34.9543 998.6066,34.9736 998.5601,35.0201 C998.4478,35.1401 998.4478,35.1401 998.4014,35.1633 C998.2968,35.2292 998.1264,35.2602 997.9367,35.2602 C997.4294,35.2602 997.108,34.9891 997.108,34.567 L997.108,34.296 C997.108,33.8545 997.4178,33.5293 997.8476,33.5293 C997.9909,33.5293 998.1419,33.568 998.2581,33.63 C998.3781,33.6997 998.4207,33.7539 998.444,33.8545 C998.4594,33.9552 998.4672,33.9862 998.502,34.0172 C998.5369,34.052 998.595,34.0791 998.6492,34.0791 C998.715,34.0791 998.7808,34.0443 998.8234,33.9901 C998.8505,33.9514 998.8583,33.9049 998.8583,33.8003 L998.8583,33.448 C998.8583,33.3395 998.8544,33.3086 998.8312,33.2698 C998.7925,33.204 998.7228,33.1692 998.6492,33.1692 C998.5756,33.1692 998.5253,33.1924 998.4711,33.2698 L998.4285,33.2505 Z " fill="#000000"/><text fill="#000000" font-family="sans-serif" font-size="3.4695" lengthAdjust="spacing" textLength="32.9601" x="1001.3171" y="35.5242">DeletedIngredient</text><line style="stroke:#181818;stroke-width:0.12391005048187242;" x1="994.3782" x2="1034.7728" y1="38.2882" y2="38.2882"/><text fill="#000000" font-family="sans-serif" font-size="3.4695" lengthAdjust="spacing" textLength="20.0734" x="995.6173" y="42.4999">-id: Integer</text><line style="stroke:#181818;stroke-width:0.12391005048187242;" x1="994.3782" x2="1034.7728" y1="44.3095" y2="44.3095"/></g><!--MD5=[91ffdd76f1c8795364bfc7c752e5da6a]
class Ingredient--><g id="elem_Ingredient"><rect codeLine="94" fill="#F1F1F1" height="32.0888" id="Ingredient" rx="0.6196" ry="0.6196" style="stroke:#181818;stroke-width:0.12391005048187242;" width="30.7297" x="1043.8183" y="22.3038"/><ellipse cx="1049.4314" cy="26.2689" fill="#ADD1B2" rx="2.726" ry="2.726" style="stroke:#181818;stroke-width:0.24782010096374485;"/><path d="M1050.0122,25.1963 C1049.7799,25.0879 1049.6327,25.0531 1049.4159,25.0531 C1048.7654,25.0531 1048.2697,25.5681 1048.2697,26.2418 L1048.2697,26.5206 C1048.2697,27.1595 1048.7925,27.6281 1049.5088,27.6281 C1049.8109,27.6281 1050.0974,27.5545 1050.2833,27.419 C1050.4265,27.3183 1050.5079,27.206 1050.5079,27.1092 C1050.5079,26.9969 1050.4111,26.9001 1050.2949,26.9001 C1050.2407,26.9001 1050.1903,26.9195 1050.1439,26.9659 C1050.0316,27.086 1050.0316,27.086 1049.9851,27.1092 C1049.8806,27.175 1049.7102,27.206 1049.5205,27.206 C1049.0132,27.206 1048.6918,26.9349 1048.6918,26.5129 L1048.6918,26.2418 C1048.6918,25.8004 1049.0016,25.4751 1049.4314,25.4751 C1049.5747,25.4751 1049.7257,25.5139 1049.8418,25.5758 C1049.9619,25.6455 1050.0045,25.6997 1050.0277,25.8004 C1050.0432,25.9011 1050.0509,25.9321 1050.0858,25.963 C1050.1206,25.9979 1050.1787,26.025 1050.2329,26.025 C1050.2988,26.025 1050.3646,25.9901 1050.4072,25.9359 C1050.4343,25.8972 1050.442,25.8507 1050.442,25.7462 L1050.442,25.3938 C1050.442,25.2854 1050.4382,25.2544 1050.4149,25.2157 C1050.3762,25.1499 1050.3065,25.115 1050.2329,25.115 C1050.1594,25.115 1050.109,25.1383 1050.0548,25.2157 L1050.0122,25.1963 Z " fill="#000000"/><text fill="#000000" font-family="sans-serif" font-size="3.4695" lengthAdjust="spacing" textLength="18.5865" x="1053.3222" y="27.47">Ingredient</text><line style="stroke:#181818;stroke-width:0.12391005048187242;" x1="1044.0661" x2="1074.3001" y1="30.2341" y2="30.2341"/><text fill="#000000" font-family="sans-serif" font-size="3.4695" lengthAdjust="spacing" textLength="20.0734" x="1045.3052" y="34.4458">-id: Integer</text><text fill="#000000" font-family="sans-serif" font-size="3.4695" lengthAdjust="spacing" textLength="24.5342" x="1045.3052" y="38.4845">-name: String</text><text fill="#000000" font-family="sans-serif" font-size="3.4695" lengthAdjust="spacing" textLength="26.2689" x="1045.3052" y="42.5232">-amount: Float</text><text fill="#000000" font-family="sans-serif" font-size="3.4695" lengthAdjust="spacing" textLength="21.5603" x="1045.3052" y="46.5619">-unit: String</text><text fill="#000000" font-family="sans-serif" font-size="3.4695" lengthAdjust="spacing" textLength="27.7559" x="1045.3052" y="50.6006">-original: String</text><line style="stroke:#181818;stroke-width:0.12391005048187242;" x1="1044.0661" x2="1074.3001" y1="52.4101" y2="52.4101"/></g><!--MD5=[37e4873d5ae814064918596b78d1759e]
class IngredientDTO--><g id="elem_IngredientDTO"><rect codeLine="101" fill="#F1F1F1" height="44.2049" id="IngredientDTO" rx="0.6196" ry="0.6196" style="stroke:#181818;stroke-width:0.12391005048187242;" width="41.1381" x="994.0064" y="107.5539"/><ellipse cx="1000.8463" cy="111.519" fill="#ADD1B2" rx="2.726" ry="2.726" style="stroke:#181818;stroke-width:0.24782010096374485;"/><path d="M1001.4271,110.4464 C1001.1948,110.338 1001.0476,110.3032 1000.8308,110.3032 C1000.1802,110.3032 999.6846,110.8182 999.6846,111.4919 L999.6846,111.7707 C999.6846,112.4096 1000.2073,112.8782 1000.9237,112.8782 C1001.2257,112.8782 1001.5123,112.8046 1001.6981,112.6691 C1001.8414,112.5684 1001.9227,112.4561 1001.9227,112.3593 C1001.9227,112.247 1001.8259,112.1502 1001.7098,112.1502 C1001.6555,112.1502 1001.6052,112.1696 1001.5587,112.216 C1001.4464,112.3361 1001.4464,112.3361 1001.4,112.3593 C1001.2954,112.4251 1001.1251,112.4561 1000.9353,112.4561 C1000.4281,112.4561 1000.1067,112.1851 1000.1067,111.763 L1000.1067,111.4919 C1000.1067,111.0505 1000.4164,110.7252 1000.8463,110.7252 C1000.9895,110.7252 1001.1405,110.764 1001.2567,110.8259 C1001.3767,110.8956 1001.4193,110.9498 1001.4426,111.0505 C1001.4581,111.1512 1001.4658,111.1822 1001.5007,111.2131 C1001.5355,111.248 1001.5936,111.2751 1001.6478,111.2751 C1001.7136,111.2751 1001.7795,111.2402 1001.8221,111.186 C1001.8492,111.1473 1001.8569,111.1008 1001.8569,110.9963 L1001.8569,110.6439 C1001.8569,110.5355 1001.853,110.5045 1001.8298,110.4658 C1001.7911,110.4 1001.7214,110.3651 1001.6478,110.3651 C1001.5742,110.3651 1001.5239,110.3884 1001.4697,110.4658 L1001.4271,110.4464 Z " fill="#000000"/><text fill="#000000" font-family="sans-serif" font-size="3.4695" lengthAdjust="spacing" textLength="26.2689" x="1005.0096" y="112.7202">IngredientDTO</text><line style="stroke:#181818;stroke-width:0.12391005048187242;" x1="994.2542" x2="1034.8967" y1="115.4842" y2="115.4842"/><text fill="#000000" font-family="sans-serif" font-size="3.4695" lengthAdjust="spacing" textLength="24.5342" x="995.4933" y="119.6959">-name: String</text><text fill="#000000" font-family="sans-serif" font-size="3.4695" lengthAdjust="spacing" textLength="26.2689" x="995.4933" y="123.7346">-amount: Float</text><text fill="#000000" font-family="sans-serif" font-size="3.4695" lengthAdjust="spacing" textLength="21.5603" x="995.4933" y="127.7733">-unit: String</text><text fill="#000000" font-family="sans-serif" font-size="3.4695" lengthAdjust="spacing" textLength="27.7559" x="995.4933" y="131.812">-original: String</text><line style="stroke:#181818;stroke-width:0.12391005048187242;" x1="994.2542" x2="1034.8967" y1="133.6215" y2="133.6215"/><text fill="#000000" font-family="sans-serif" font-size="3.4695" lengthAdjust="spacing" textLength="34.6948" x="995.4933" y="137.8332">+getName(): String</text><text fill="#000000" font-family="sans-serif" font-size="3.4695" lengthAdjust="spacing" textLength="36.6774" x="995.4933" y="141.8719">+getAmount(): Float</text><text fill="#000000" font-family="sans-serif" font-size="3.4695" lengthAdjust="spacing" textLength="31.721" x="995.4933" y="145.9106">+getUnit(): String</text><text fill="#000000" font-family="sans-serif" font-size="3.4695" lengthAdjust="spacing" textLength="38.1643" x="995.4933" y="149.9493">+getOriginal(): String</text></g><!--MD5=[f2dbcaca13ba86a8fd9e818b79ec1c41]
class IngredientController--><g id="elem_IngredientController"><rect codeLine="112" fill="#F1F1F1" height="19.9728" id="IngredientController" rx="0.6196" ry="0.6196" style="stroke:#181818;stroke-width:0.12391005048187242;" width="89.2152" x="645.3235" y="28.2515"/><ellipse cx="670.5392" cy="32.2166" fill="#ADD1B2" rx="2.726" ry="2.726" style="stroke:#181818;stroke-width:0.24782010096374485;"/><path d="M671.1201,31.144 C670.8877,31.0356 670.7406,31.0007 670.5237,31.0007 C669.8732,31.0007 669.3776,31.5157 669.3776,32.1895 L669.3776,32.4683 C669.3776,33.1072 669.9003,33.5758 670.6167,33.5758 C670.9187,33.5758 671.2053,33.5022 671.3911,33.3667 C671.5344,33.266 671.6157,33.1537 671.6157,33.0569 C671.6157,32.9446 671.5189,32.8478 671.4027,32.8478 C671.3485,32.8478 671.2982,32.8671 671.2517,32.9136 C671.1394,33.0336 671.1394,33.0336 671.093,33.0569 C670.9884,33.1227 670.818,33.1537 670.6283,33.1537 C670.121,33.1537 669.7997,32.8826 669.7997,32.4606 L669.7997,32.1895 C669.7997,31.7481 670.1094,31.4228 670.5392,31.4228 C670.6825,31.4228 670.8335,31.4615 670.9497,31.5235 C671.0697,31.5932 671.1123,31.6474 671.1356,31.7481 C671.151,31.8488 671.1588,31.8797 671.1936,31.9107 C671.2285,31.9456 671.2866,31.9727 671.3408,31.9727 C671.4066,31.9727 671.4724,31.9378 671.515,31.8836 C671.5421,31.8449 671.5499,31.7984 671.5499,31.6939 L671.5499,31.3415 C671.5499,31.2331 671.546,31.2021 671.5228,31.1634 C671.4841,31.0976 671.4144,31.0627 671.3408,31.0627 C671.2672,31.0627 671.2169,31.0859 671.1627,31.1634 L671.1201,31.144 Z " fill="#000000"/><text fill="#000000" font-family="sans-serif" font-size="3.4695" lengthAdjust="spacing" textLength="36.6774" x="675.6196" y="33.4177">IngredientController</text><line style="stroke:#181818;stroke-width:0.12391005048187242;" x1="645.5714" x2="734.291" y1="36.1817" y2="36.1817"/><text fill="#000000" font-family="sans-serif" font-size="3.4695" lengthAdjust="spacing" textLength="86.2414" x="646.8105" y="40.3935">+ingredientDataMapper: IngredientDataMapper</text><line style="stroke:#181818;stroke-width:0.12391005048187242;" x1="645.5714" x2="734.291" y1="42.203" y2="42.203"/><text fill="#000000" font-family="sans-serif" font-size="3.4695" lengthAdjust="spacing" textLength="20.5691" x="646.8105" y="46.4147">+run(): void</text></g><!--MD5=[b4b464c6fefadc8bdb85f970937fd9bb]
class IngredientDataMapper--><g id="elem_IngredientDataMapper"><rect codeLine="116" fill="#F1F1F1" height="40.1662" id="IngredientDataMapper" rx="0.6196" ry="0.6196" style="stroke:#181818;stroke-width:0.12391005048187242;" width="116.7233" x="868.7334" y="18.2148"/><ellipse cx="905.7205" cy="22.1799" fill="#ADD1B2" rx="2.726" ry="2.726" style="stroke:#181818;stroke-width:0.24782010096374485;"/><path d="M906.3013,21.1073 C906.069,20.9989 905.9219,20.964 905.705,20.964 C905.0545,20.964 904.5589,21.479 904.5589,22.1528 L904.5589,22.4316 C904.5589,23.0705 905.0816,23.539 905.798,23.539 C906.1,23.539 906.3865,23.4655 906.5724,23.3299 C906.7157,23.2293 906.797,23.117 906.797,23.0202 C906.797,22.9079 906.7002,22.8111 906.584,22.8111 C906.5298,22.8111 906.4795,22.8304 906.433,22.8769 C906.3207,22.9969 906.3207,22.9969 906.2742,23.0202 C906.1697,23.086 905.9993,23.117 905.8096,23.117 C905.3023,23.117 904.9809,22.8459 904.9809,22.4238 L904.9809,22.1528 C904.9809,21.7114 905.2907,21.3861 905.7205,21.3861 C905.8638,21.3861 906.0148,21.4248 906.131,21.4868 C906.251,21.5565 906.2936,21.6107 906.3168,21.7114 C906.3323,21.812 906.3401,21.843 906.3749,21.874 C906.4098,21.9088 906.4678,21.936 906.5221,21.936 C906.5879,21.936 906.6537,21.9011 906.6963,21.8469 C906.7234,21.8082 906.7312,21.7617 906.7312,21.6572 L906.7312,21.3048 C906.7312,21.1964 906.7273,21.1654 906.7041,21.1267 C906.6653,21.0608 906.5956,21.026 906.5221,21.026 C906.4485,21.026 906.3981,21.0492 906.3439,21.1267 L906.3013,21.1073 Z " fill="#000000"/><text fill="#000000" font-family="sans-serif" font-size="3.4695" lengthAdjust="spacing" textLength="40.6425" x="910.8008" y="23.381">IngredientDataMapper</text><line style="stroke:#181818;stroke-width:0.12391005048187242;" x1="868.9812" x2="985.2088" y1="26.145" y2="26.145"/><text fill="#000000" font-family="sans-serif" font-size="3.4695" lengthAdjust="spacing" textLength="72.8591" x="870.2203" y="30.3568">+ingredientGateway: IngredientGateway</text><line style="stroke:#181818;stroke-width:0.12391005048187242;" x1="868.9812" x2="985.2088" y1="32.1663" y2="32.1663"/><text fill="#000000" font-family="sans-serif" font-size="3.4695" lengthAdjust="spacing" textLength="39.899" x="870.2203" y="36.378">+findAll(): Ingredient[]</text><text fill="#000000" font-family="sans-serif" font-size="3.4695" lengthAdjust="spacing" textLength="85.0023" x="870.2203" y="40.4167">+findOneById(ingredientId: Integer): Ingredient</text><text fill="#000000" font-family="sans-serif" font-size="3.4695" lengthAdjust="spacing" textLength="80.5415" x="870.2203" y="44.4554">+deletedById(ingredientId: Integer): Boolean</text><text fill="#000000" font-family="sans-serif" font-size="3.4695" lengthAdjust="spacing" textLength="79.3024" x="870.2203" y="48.4941">+create(ingredient: IngredientDTO): Integer</text><text fill="#000000" font-family="sans-serif" font-size="3.4695" lengthAdjust="spacing" textLength="113.7494" x="870.2203" y="52.5328">+update(ingredientId: Integer, ingredient: IngredientDTO): void</text><text fill="#000000" font-family="sans-serif" font-size="3.4695" lengthAdjust="spacing" textLength="100.1193" x="870.2203" y="56.5715">+getIngredientFromResultSet(rs: ResultSet): Ingredient</text></g><!--MD5=[ab2a53cff56fda50887ba958b434a1e0]
class IngredientGateway--><g id="elem_IngredientGateway"><rect codeLine="125" fill="#F1F1F1" height="36.1275" id="IngredientGateway" rx="0.6196" ry="0.6196" style="stroke:#181818;stroke-width:0.12391005048187242;" width="116.7233" x="743.3364" y="20.1973"/><ellipse cx="783.6691" cy="24.1625" fill="#ADD1B2" rx="2.726" ry="2.726" style="stroke:#181818;stroke-width:0.24782010096374485;"/><path d="M784.2499,23.0899 C784.0176,22.9814 783.8705,22.9466 783.6536,22.9466 C783.0031,22.9466 782.5075,23.4616 782.5075,24.1354 L782.5075,24.4142 C782.5075,25.0531 783.0302,25.5216 783.7466,25.5216 C784.0486,25.5216 784.3351,25.448 784.521,25.3125 C784.6643,25.2118 784.7456,25.0995 784.7456,25.0027 C784.7456,24.8904 784.6488,24.7936 784.5326,24.7936 C784.4784,24.7936 784.4281,24.813 784.3816,24.8595 C784.2693,24.9795 784.2693,24.9795 784.2228,25.0027 C784.1183,25.0686 783.9479,25.0995 783.7582,25.0995 C783.2509,25.0995 782.9295,24.8285 782.9295,24.4064 L782.9295,24.1354 C782.9295,23.6939 783.2393,23.3687 783.6691,23.3687 C783.8124,23.3687 783.9634,23.4074 784.0796,23.4693 C784.1996,23.539 784.2422,23.5932 784.2654,23.6939 C784.2809,23.7946 784.2887,23.8256 784.3235,23.8566 C784.3584,23.8914 784.4164,23.9185 784.4707,23.9185 C784.5365,23.9185 784.6023,23.8837 784.6449,23.8295 C784.672,23.7907 784.6798,23.7443 784.6798,23.6397 L784.6798,23.2873 C784.6798,23.1789 784.6759,23.1479 784.6527,23.1092 C784.6139,23.0434 784.5442,23.0085 784.4707,23.0085 C784.3971,23.0085 784.3467,23.0318 784.2925,23.1092 L784.2499,23.0899 Z " fill="#000000"/><text fill="#000000" font-family="sans-serif" font-size="3.4695" lengthAdjust="spacing" textLength="33.9514" x="788.7494" y="25.3636">IngredientGateway</text><line style="stroke:#181818;stroke-width:0.12391005048187242;" x1="743.5842" x2="859.8118" y1="28.1276" y2="28.1276"/><line style="stroke:#181818;stroke-width:0.12391005048187242;" x1="743.5842" x2="859.8118" y1="30.1101" y2="30.1101"/><text fill="#000000" font-family="sans-serif" font-size="3.4695" lengthAdjust="spacing" textLength="65.1767" x="744.8233" y="34.3219">+connect(dbUrl: String): Connection</text><text fill="#000000" font-family="sans-serif" font-size="3.4695" lengthAdjust="spacing" textLength="36.1817" x="744.8233" y="38.3606">+findAll(): ResultSet</text><text fill="#000000" font-family="sans-serif" font-size="3.4695" lengthAdjust="spacing" textLength="83.7632" x="744.8233" y="42.3993">+findOneById(ingredientId: Integer): ResultSet</text><text fill="#000000" font-family="sans-serif" font-size="3.4695" lengthAdjust="spacing" textLength="73.6026" x="744.8233" y="46.438">+deletedById(ingredientId: Integer): void</text><text fill="#000000" font-family="sans-serif" font-size="3.4695" lengthAdjust="spacing" textLength="79.3024" x="744.8233" y="50.4766">+create(ingredient: IngredientDTO): Integer</text><text fill="#000000" font-family="sans-serif" font-size="3.4695" lengthAdjust="spacing" textLength="113.7494" x="744.8233" y="54.5153">+update(ingredientId: Integer, ingredient: IngredientDTO): void</text></g><!--MD5=[efd4776dcb80edb8e626d606d73f44b4]
link RecipeDataMapper to DataMapperException--><g id="link_RecipeDataMapper_DataMapperException"><path codeLine="135" d="M418.7391,44.2527 C473.4801,50.9305 553.6499,63.3914 578.9078,81.285 C593.0806,91.3254 601.3677,110.8301 605.0701,121.6551 " fill="none" id="RecipeDataMapper-DataMapperException" style="stroke:#181818;stroke-width:0.24782010096374485;"/></g><!--MD5=[a56a56c22906e2644282c1ab676a790c]
link IngredientDataMapper to DataMapperException--><g id="link_IngredientDataMapper_DataMapperException"><path codeLine="136" d="M888.1253,58.3772 C880.4305,61.5707 872.2896,64.4635 864.3965,66.4158 C816.1757,78.3434 684.6799,56.981 641.3584,81.285 C625.2724,90.3089 614.9928,110.5084 610.3264,121.6383 " fill="none" id="IngredientDataMapper-DataMapperException" style="stroke:#181818;stroke-width:0.24782010096374485;"/></g><!--MD5=[f0e10b769552aa4ff4f2e3cf45fd98e6]
link RecipeGateway to GatewayException--><g id="link_RecipeGateway_GatewayException"><path codeLine="138" d="M283.4393,58.3832 C290.9259,61.5759 298.8537,64.4672 306.5535,66.4158 C354.5488,78.5617 487.4027,54.203 528.8481,81.285 C543.0284,90.5505 549.6427,110.555 552.3191,121.616 " fill="none" id="RecipeGateway-GatewayException" style="stroke:#181818;stroke-width:0.24782010096374485;"/></g><!--MD5=[4e0f705f1e1b19e50c1e058e6825b021]
link IngredientGateway to GatewayException--><g id="link_IngredientGateway_GatewayException"><path codeLine="139" d="M766.9462,56.3897 C758.0396,60.2904 748.3349,63.977 738.9995,66.4158 C704.4311,75.4459 608.5619,61.3563 578.9078,81.285 C564.8489,90.7326 558.185,110.6631 555.4689,121.6643 " fill="none" id="IngredientGateway-GatewayException" style="stroke:#181818;stroke-width:0.24782010096374485;"/></g><!--MD5=[b4e53ad74a8a63d497fde9127a2df81f]
link RecipeController to StandardResponse--><g id="link_RecipeController_StandardResponse"><path codeLine="141" d="M153.6829,48.3641 C161.7029,54.7687 173.0877,62.6177 184.626,66.4158 C245.7012,86.5202 418.7466,47.7148 473.5842,81.285 C486.736,89.3362 494.2896,106.1034 498.106,117.5468 " fill="none" id="RecipeController-StandardResponse" style="stroke:#181818;stroke-width:0.24782010096374485;"/></g><!--MD5=[e644d780e54d202cb96a6428272744bf]
link IngredientController to StandardResponse--><g id="link_IngredientController_StandardResponse"><path codeLine="142" d="M645.2665,41.1215 C610.4354,45.1714 562.4872,55.4334 528.8481,81.285 C516.8387,90.5143 509.1935,106.5849 505.0896,117.5857 " fill="none" id="IngredientController-StandardResponse" style="stroke:#181818;stroke-width:0.24782010096374485;"/></g><!--MD5=[eedadfd6aa04f881bf8243327e5d862a]
@startuml
scale 1080 width
skinparam classAttributeIconSize 0

package core <<Folder>> {
  class DataMapperException {
    -message: String
  }
  class GatewayException {
    -message: String
  }
  class StandardResponse {
    -status: StatusResponse
    -message: String
    -data: JsonElement
  }
  enum StatusResponse {
    -status: String
    +SUCCESS
    +ERROR
  }
}

package recipes <<Folder>> {
  class DeletedRecipe {
    -id: Integer
  }
  class Recipe {
    -id: Integer
    -title: String
    -image: String
    -servings: Integer
    -healthScore: Integer
    -cheap: Boolean
    -glutenFree: Boolean
    -dairyFree: Boolean
    -readyInMinutes: Integer
    -instructions: String
    -summary: String
  }
  class RecipeDTO {
    -title: String
    -image: String
    -servings: Integer
    -healthScore: Integer
    -cheap: Boolean
    -glutenFree: Boolean
    -dairyFree: Boolean
    -readyInMinutes: Integer
    -instructions: String
    -summary: String

    +getTitle(): String
    +getImage(): String
    +getServings(): Integer
    +getHealthScore(): Integer
    +isCheap(): Boolean
    +isGlutenFree(): Boolean
    +isDairyFree(): Boolean
    +getReadyInMinutes(): Integer
    +getInstructions(): String
    +getSummary(): String
    +getIngredientIds(): Integer[]
  }
  class RecipeController {
    +recipeDataMapper: RecipeDataMapper
    +run(): void
  }
  class RecipeDataMapper {
    +recipeGateway: RecipeGateway;
    +ingredientDataMapper: IngredientDataMapper;
    +findAll(): Recipe[]
    +findOneById(recipeId: Integer): Recipe
    +deletedById(recipeId: Integer): Boolean
    +create(recipe: RecipeDTO): Integer
    +update(recipeId: Integer, recipe: RecipeDTO): void
    +findIngredientsOfOneById(recipeId: Integer): Ingredient[]
    +getRecipeFromResultSet(rs: ResultSet): Recipe
  }
  class RecipeGateway {
    +connect(dbUrl: String): Connection
    +findAll(): ResultSet
    +findOneById(recipeId: Integer): ResultSet
    +deletedById(recipeId: Integer): void
    +create(recipe: RecipeDTO): Integer
    +update(recipeId: Integer, recipe: RecipeDTO): void
    +findIngredientIdsFromRecipeId(recipeId: Integer): ResultSet
  }
}

package ingredients <<Folder>> {
  class DeletedIngredient {
    -id: Integer
  }
  class Ingredient {
    -id: Integer
    -name: String
    -amount: Float
    -unit: String
    -original: String
  }
  class IngredientDTO {
    -name: String
    -amount: Float
    -unit: String
    -original: String

    +getName(): String 
    +getAmount(): Float
    +getUnit(): String 
    +getOriginal(): String 
  }
  class IngredientController {
    +ingredientDataMapper: IngredientDataMapper
    +run(): void
  }
  class IngredientDataMapper {
    +ingredientGateway: IngredientGateway
    +findAll(): Ingredient[]
    +findOneById(ingredientId: Integer): Ingredient
    +deletedById(ingredientId: Integer): Boolean
    +create(ingredient: IngredientDTO): Integer
    +update(ingredientId: Integer, ingredient: IngredientDTO): void
    +getIngredientFromResultSet(rs: ResultSet): Ingredient
  }
  class IngredientGateway {
    +connect(dbUrl: String): Connection
    +findAll(): ResultSet
    +findOneById(ingredientId: Integer): ResultSet
    +deletedById(ingredientId: Integer): void
    +create(ingredient: IngredientDTO): Integer
    +update(ingredientId: Integer, ingredient: IngredientDTO): void
  }
}

RecipeDataMapper - - DataMapperException
IngredientDataMapper - - DataMapperException

RecipeGateway - - GatewayException
IngredientGateway - - GatewayException

RecipeController - - StandardResponse
IngredientController - - StandardResponse
@enduml

PlantUML version 1.2022.14beta1(Unknown compile time)
(GPL source distribution)
Java Runtime: Java(TM) SE Runtime Environment
JVM: Java HotSpot(TM) 64-Bit Server VM
Default Encoding: UTF-8
Language: en
Country: US
--></g></svg>
